<svg width="73" height="80" viewBox="0 0 73 80" fill="none" xmlns="http://www.w3.org/2000/svg">
<g clip-path="url(#clip0_68_72)">
<path d="M39.4583 63.4584C22.7743 63.4584 9.24999 49.9341 9.24999 33.25C9.24999 16.566 22.7743 3.04169 39.4583 3.04169C56.1424 3.04169 69.6667 16.566 69.6667 33.25" stroke="#37474F" stroke-width="4" stroke-linecap="round" stroke-linejoin="round"/>
<path d="M9.25 33.25C9.25 16.566 22.7743 3.04168 39.4583 3.04169C56.1424 3.04169 69.6667 16.566 69.6667 33.25C69.6667 49.9341 56.1424 63.4584 39.4583 63.4584" stroke="#37474F" stroke-width="4" stroke-linecap="round" stroke-linejoin="round"/>
<path d="M30.9824 39.3174C31.2803 42.8593 34.0281 45.3729 38.2112 45.698V48.2817H40.3108V45.698C44.8804 45.3177 47.7148 42.6426 47.7148 38.6863C47.7148 35.308 45.8084 33.3532 41.7642 32.2526L40.3108 31.8553V23.777C42.5694 24.0107 44.0933 25.294 44.4778 27.2106H47.437C47.1028 23.811 44.3369 21.3718 40.3108 21.1019V18.5352H38.2112V21.155C34.3079 21.6437 31.6286 24.2827 31.6286 27.8607C31.6286 30.9501 33.5732 33.1365 36.9853 34.0586L38.2132 34.4028V42.9677C35.9002 42.6065 34.3079 41.2679 33.9234 39.3174H30.9824ZM37.8086 31.1668C35.709 30.608 34.5877 29.4139 34.5877 27.7333C34.5877 25.7275 36.0049 24.2465 38.2112 23.8492V31.2752L37.8086 31.169V31.1668ZM41.0114 35.1444C43.6021 35.8307 44.7395 36.9695 44.7395 38.9031C44.7395 41.2339 43.0767 42.7871 40.3108 43.0229V34.9595L41.0114 35.1423V35.1444Z" fill="#3A81DA"/>
</g>
<defs>
<clipPath id="clip0_68_72">
<rect width="72.5" height="79.6667" fill="white" transform="translate(0 0.147614)"/>
</clipPath>
</defs>
</svg>
