<svg width="71" height="71" viewBox="0 0 71 71" fill="none" xmlns="http://www.w3.org/2000/svg">
<path d="M61.987 31.5555H19.7222V35.5H61.987C62.51 35.5 63.0117 35.2922 63.3815 34.9223C63.7514 34.5525 63.9592 34.0508 63.9592 33.5278C63.9592 33.0047 63.7514 32.5031 63.3815 32.1332C63.0117 31.7633 62.51 31.5555 61.987 31.5555Z" fill="#263238"/>
<path d="M61.987 47.3333H19.7222V51.2778H61.987C62.51 51.2778 63.0117 51.07 63.3815 50.7001C63.7514 50.3303 63.9592 49.8286 63.9592 49.3056C63.9592 48.7825 63.7514 48.2809 63.3815 47.911C63.0117 47.5411 62.51 47.3333 61.987 47.3333Z" fill="#263238"/>
<path d="M30.4708 19.7222H62.0264C62.5494 19.7222 63.0511 19.5144 63.421 19.1446C63.7908 18.7747 63.9986 18.2731 63.9986 17.75C63.9986 17.2269 63.7908 16.7253 63.421 16.3554C63.0511 15.9856 62.5494 15.7778 62.0264 15.7778H34.4153L30.4708 19.7222Z" fill="#263238"/>
<path d="M34.5139 6.74501C34.314 6.54286 34.076 6.38238 33.8136 6.27286C33.5512 6.16333 33.2697 6.10693 32.9854 6.10693C32.7011 6.10693 32.4196 6.16333 32.1573 6.27286C31.8949 6.38238 31.6569 6.54286 31.457 6.74501L15.5608 22.6411L8.89473 15.4622C8.50243 15.0412 7.95893 14.7932 7.38379 14.7728C6.80866 14.7525 6.24899 14.9615 5.82793 15.3538C5.40686 15.7461 5.15888 16.2896 5.13853 16.8647C5.11819 17.4398 5.32715 17.9995 5.71945 18.4206L15.4622 28.8733L34.5139 9.86112C34.7227 9.65886 34.8886 9.41672 35.002 9.14907C35.1153 8.88142 35.1737 8.59372 35.1737 8.30306C35.1737 8.0124 35.1153 7.72471 35.002 7.45706C34.8886 7.18941 34.7227 6.94727 34.5139 6.74501Z" fill="#3A81DA"/>
</svg>
