<svg id="Camada_2" data-name="Camada 2" xmlns="http://www.w3.org/2000/svg" xmlns:xlink="http://www.w3.org/1999/xlink" viewBox="0 0 288.35 288.35"><defs><style>.cls-1{fill:url(#Gradiente_sem_nome_17);}.cls-2{fill:url(#Gradiente_sem_nome_12);}.cls-3{fill:#fff;}.cls-4{fill:url(#Gradiente_sem_nome_77);}.cls-5{fill:url(#Gradiente_sem_nome_77-2);}.cls-6{opacity:0.05;fill:url(#Gradiente_sem_nome_103);}.cls-7{opacity:0.03;fill:url(#Gradiente_sem_nome_105);}.cls-8{opacity:0.02;fill:url(#Gradiente_sem_nome_106);}.cls-10,.cls-9{fill:none;stroke-miterlimit:10;stroke-width:12px;}.cls-9{stroke:#000;}.cls-10{stroke:#fff;}</style><linearGradient id="Gradiente_sem_nome_17" x1="144.18" x2="144.18" y2="288.35" gradientUnits="userSpaceOnUse"><stop offset="0" stop-color="#74acfa"/><stop offset="0.05" stop-color="#6ca6f6"/><stop offset="0.35" stop-color="#3e83dc"/><stop offset="0.63" stop-color="#1c6ac9"/><stop offset="0.85" stop-color="#075bbe"/><stop offset="1" stop-color="#0055ba"/></linearGradient><radialGradient id="Gradiente_sem_nome_12" cx="500.05" cy="457.27" r="84.85" gradientUnits="userSpaceOnUse"><stop offset="0.01" stop-color="#002566"/><stop offset="0.29" stop-color="#001755"/><stop offset="0.72" stop-color="#000740"/><stop offset="1" stop-color="#000139"/></radialGradient><radialGradient id="Gradiente_sem_nome_77" cx="181.71" cy="142.68" r="21.01" gradientUnits="userSpaceOnUse"><stop offset="0" stop-color="#15b9ff"/><stop offset="0.1" stop-color="#15b6fb" stop-opacity="0.98"/><stop offset="0.23" stop-color="#13acf1" stop-opacity="0.93"/><stop offset="0.37" stop-color="#129bdf" stop-opacity="0.84"/><stop offset="0.51" stop-color="#0f84c6" stop-opacity="0.71"/><stop offset="0.67" stop-color="#0b66a6" stop-opacity="0.55"/><stop offset="0.82" stop-color="#074280" stop-opacity="0.35"/><stop offset="0.98" stop-color="#021853" stop-opacity="0.12"/><stop offset="1" stop-color="#02144e" stop-opacity="0.1"/><stop offset="1" stop-color="#04205b" stop-opacity="0.49"/><stop offset="1" stop-color="#04235e" stop-opacity="0.5"/><stop offset="1" stop-color="#02134d" stop-opacity="0.27"/><stop offset="1" stop-color="#000139" stop-opacity="0"/></radialGradient><radialGradient id="Gradiente_sem_nome_77-2" cx="100.07" cy="142.68" r="21.01" xlink:href="#Gradiente_sem_nome_77"/><linearGradient id="Gradiente_sem_nome_103" x1="474.01" y1="460.87" x2="506.82" y2="460.87" gradientTransform="translate(-266.19 -199.99) scale(1.59 1.43)" gradientUnits="userSpaceOnUse"><stop offset="0" stop-color="#15b9ff"/><stop offset="0" stop-color="#fff"/><stop offset="0.18" stop-color="#c8ccd9" stop-opacity="0.81"/><stop offset="0.48" stop-color="#747e9e" stop-opacity="0.51"/><stop offset="0.73" stop-color="#374573" stop-opacity="0.29"/><stop offset="0.91" stop-color="#112158" stop-opacity="0.15"/><stop offset="1" stop-color="#02144e" stop-opacity="0.1"/><stop offset="1" stop-color="#04205b" stop-opacity="0.49"/><stop offset="1" stop-color="#04235e" stop-opacity="0.5"/><stop offset="1" stop-color="#7888a8" stop-opacity="0.27"/><stop offset="1" stop-color="#fff" stop-opacity="0"/></linearGradient><linearGradient id="Gradiente_sem_nome_105" x1="465.86" y1="465.67" x2="498.67" y2="465.67" gradientTransform="translate(-267.82 -208.38) scale(1.59 1.43)" gradientUnits="userSpaceOnUse"><stop offset="0" stop-color="#15b9ff"/><stop offset="0" stop-color="#fff"/><stop offset="0" stop-color="#fafafc" stop-opacity="0.98"/><stop offset="0.05" stop-color="#cccfdb" stop-opacity="0.82"/><stop offset="0.1" stop-color="#a1a8bd" stop-opacity="0.67"/><stop offset="0.15" stop-color="#7b84a2" stop-opacity="0.53"/><stop offset="0.2" stop-color="#5a668b" stop-opacity="0.41"/><stop offset="0.27" stop-color="#3e4c78" stop-opacity="0.31"/><stop offset="0.34" stop-color="#283769" stop-opacity="0.24"/><stop offset="0.42" stop-color="#17275d" stop-opacity="0.17"/><stop offset="0.51" stop-color="#0b1c54" stop-opacity="0.13"/><stop offset="0.65" stop-color="#04164f" stop-opacity="0.11"/><stop offset="1" stop-color="#02144e" stop-opacity="0.1"/><stop offset="1" stop-color="#04205b" stop-opacity="0.49"/><stop offset="1" stop-color="#04235e" stop-opacity="0.5"/><stop offset="1" stop-color="#7888a8" stop-opacity="0.27"/><stop offset="1" stop-color="#fff" stop-opacity="0"/></linearGradient><linearGradient id="Gradiente_sem_nome_106" x1="491.66" y1="448.32" x2="524.46" y2="448.32" gradientTransform="translate(50.32 -111.97) scale(0.95 1.3)" gradientUnits="userSpaceOnUse"><stop offset="0" stop-color="#15b9ff"/><stop offset="0" stop-color="#fff"/><stop offset="0.25" stop-color="#fdfdfd" stop-opacity="0.99"/><stop offset="0.39" stop-color="#f5f5f8" stop-opacity="0.96"/><stop offset="0.5" stop-color="#e7e9ee" stop-opacity="0.91"/><stop offset="0.59" stop-color="#d4d7e1" stop-opacity="0.85"/><stop offset="0.68" stop-color="#bbbfcf" stop-opacity="0.76"/><stop offset="0.76" stop-color="#9ca3b9" stop-opacity="0.65"/><stop offset="0.83" stop-color="#7781a0" stop-opacity="0.52"/><stop offset="0.9" stop-color="#4c5982" stop-opacity="0.36"/><stop offset="0.97" stop-color="#1d2d61" stop-opacity="0.2"/><stop offset="1" stop-color="#02144e" stop-opacity="0.1"/><stop offset="1" stop-color="#04205b" stop-opacity="0.49"/><stop offset="1" stop-color="#04235e" stop-opacity="0.5"/><stop offset="1" stop-color="#7888a8" stop-opacity="0.27"/><stop offset="1" stop-color="#fff" stop-opacity="0"/></linearGradient></defs><circle id="Fundo" class="cls-1" cx="144.18" cy="144.18" r="144.18"/><path class="cls-2" d="M417.47,490.88s-34.81-49.76,4.83-71.29,43-29.54,46.1-30.13,19.31-3.22,19.31-3.22l32.82,2.29,22.94,4.94,26.8,10.94,13.79,15.53,10.2,16.83,2.5,16.35v19.4l-4.94,16-15.53,17-17.64,11.15-25.77,7.76-29.64,2.42-27.11,1.48L450.65,523l-25.06-12-22.25-20.12Z" transform="translate(-354.32 -313)"/><polygon id="Antena" class="cls-3" points="202.01 81 207.83 48.88 211.27 48.88 215.95 87.88 202.01 81"/><ellipse id="Antena-2" data-name="Antena" class="cls-3" cx="209.99" cy="42.79" rx="8.69" ry="7.59"/><rect id="Orelha" class="cls-3" x="240.98" y="124.15" width="11.91" height="42" rx="2"/><rect id="Orelha-2" data-name="Orelha" class="cls-3" x="35.26" y="124.15" width="11.91" height="42" rx="2"/><circle class="cls-4" cx="181.71" cy="142.68" r="21.01"/><circle class="cls-5" cx="100.07" cy="142.68" r="21.01"/><circle id="Olho_D" data-name="Olho D" class="cls-3" cx="181.98" cy="142.68" r="13.15"/><circle id="Olho_E" data-name="Olho E" class="cls-3" cx="100.07" cy="142.68" r="13.15"/><path id="Boca" class="cls-3" d="M476.13,488.54h41.33s-6.13,16.33-20.67,16.95S476.13,488.54,476.13,488.54Z" transform="translate(-354.32 -313)"/><rect class="cls-6" x="488.89" y="385.72" width="52.26" height="149.98" transform="translate(-10.63 -521.73) rotate(33.83)"/><rect class="cls-7" x="474.28" y="384.2" width="52.26" height="149.98" transform="translate(-13.95 -513.85) rotate(33.83)"/><rect class="cls-8" x="516.26" y="403.09" width="31.09" height="136.07" transform="translate(-2 -529.31) rotate(33.83)"/><ellipse id="Cabeça-Fundo" class="cls-9" cx="143.95" cy="145.15" rx="95.99" ry="68.68"/><path id="Cabelo" class="cls-3" d="M422.3,418.62s22.59-23.83,72.44-20.74c0,0-10.32-6.26-27.88-4.85s-26.7,6.44-26.7,6.44l-6.39,5.29L422.3,415.53Z" transform="translate(-354.32 -313)"/><ellipse id="Cabeça" class="cls-10" cx="143.95" cy="145.15" rx="100.5" ry="71.91"/><path class="cls-3" d="M409.58,570.69l-.41-5.82s-3.73-28.35,17.44-17.53c7,3.76,28.89,17.22,71.64,19.78C530.76,569.24,571,547,571,547s19.27-10.55,16.61,18.83l-.36,5,3-2.39,3.82-3.26,2.92-2.65,2.13-2,2.15-2.13,0-.75s1.13-44.29-47.22-16.4c-11,5.64-29.79,16.72-55.43,16.27s-43.39-9-62.1-20-41.28-6.94-41,18.59c0,1.35,0,2.09,0,2.09l2.33,2.07,2.6,2.35,2.64,2.37,3,2.73,2.29,2Z" transform="translate(-354.32 -313)"/><polygon class="cls-3" points="41.25 244.95 41.26 245.15 41.56 245.45 41.94 245.84 42.35 246.24 42.69 246.58 43.01 246.9 43.49 247.37 43.92 247.79 44.47 248.32 44.87 248.7 45.34 249.14 46.05 249.81 46.65 250.37 47.19 250.86 47.82 251.43 48.54 252.07 49.16 252.62 49.79 253.17 50.55 253.82 51 254.2 51.79 254.87 52.71 255.63 53.45 256.24 53.85 256.56 54.76 257.29 55.26 257.69 54.9 257.04 49.94 248.62 44.4 243.84 41.25 244.95"/><polygon class="cls-3" points="232.93 257.69 232.92 257.81 233.07 257.69 233.28 257.53 233.54 257.33 233.77 257.14 233.93 257.02 234.03 256.93 234.21 256.8 234.36 256.67 234.49 256.57 234.65 256.44 234.84 256.29 235.02 256.14 235.2 255.99 235.42 255.81 235.66 255.61 235.86 255.45 236.11 255.25 236.31 255.08 236.46 254.95 236.73 254.73 236.81 254.66 237.07 254.44 237.26 254.28 237.43 254.14 237.59 254 237.8 253.82 237.91 253.73 238.15 253.52 238.36 253.34 238.51 253.21 238.71 253.04 238.91 252.87 239.08 252.71 239.24 252.57 239.38 252.45 239.56 252.29 239.67 252.2 239.99 251.91 240.33 251.61 240.73 251.25 240.98 251.02 241.37 250.67 241.7 250.36 242.61 249.54 243.28 248.89 243.75 248.44 244.32 247.9 244.61 247.62 244.71 247.52 245.29 246.95 245.75 246.5 246.08 246.17 246.41 245.84 246.74 245.5 246.92 245.33 246.83 245.19 236.75 250.72 234.56 253.31 233.21 256.99 232.93 257.69"/></svg>